<svg width="24" height="23" viewBox="0 0 24 23" fill="none" xmlns="http://www.w3.org/2000/svg">
<g clip-path="url(#clip0_1_99)">
<path d="M12 23.0019C18.6274 23.0019 24 17.8532 24 11.502C24 5.15068 18.6274 0.00195312 12 0.00195312C5.37258 0.00195312 0 5.15068 0 11.502C0 17.8532 5.37258 23.0019 12 23.0019Z" fill="white"/>
<path d="M16.6707 14.8262L17.2023 11.5012H13.8745V9.34383C13.8745 8.43495 14.3386 7.5471 15.8303 7.5471H17.3441V4.71698C17.3441 4.71698 15.9704 4.49219 14.6575 4.49219C11.917 4.49219 10.1248 6.08352 10.1248 8.96701V11.5012H7.07715V14.8262H10.1248V22.8621C10.7357 22.9543 11.3618 23.0012 11.9997 23.0012C12.6375 23.0012 13.2636 22.9527 13.8745 22.8621V14.8262H16.6707Z" fill="black"/>
</g>
<defs>
<clipPath id="clip0_1_99">
<rect width="24" height="23" fill="white"/>
</clipPath>
</defs>
</svg>
