<svg width="22" height="21" viewBox="0 0 22 21" fill="none" xmlns="http://www.w3.org/2000/svg">
<path d="M22 3.98717C21.1906 4.33017 20.3207 4.56117 19.4077 4.6653C20.3399 4.13242 21.0558 3.28805 21.3923 2.2818C20.5205 2.7753 19.5543 3.13405 18.5258 3.32742C17.7036 2.49005 16.5293 1.9668 15.2313 1.9668C12.3172 1.9668 10.1759 4.56205 10.8341 7.25617C7.084 7.0768 3.75833 5.3618 1.53175 2.75517C0.34925 4.69155 0.9185 7.22467 2.92783 8.50742C2.189 8.48467 1.49233 8.2913 0.884583 7.96842C0.835083 9.9643 2.33383 11.8315 4.5045 12.2472C3.86925 12.4117 3.1735 12.4502 2.46583 12.3207C3.03967 14.0322 4.70617 15.2773 6.6825 15.3123C4.785 16.7324 2.39433 17.3668 0 17.0973C1.99742 18.3197 4.37067 19.0328 6.919 19.0328C15.2992 19.0328 20.0338 12.2769 19.7477 6.21755C20.6296 5.60942 21.395 4.8508 22 3.98717Z" fill="white"/>
</svg>
