<svg width="28" height="27" viewBox="0 0 28 27" fill="none" xmlns="http://www.w3.org/2000/svg">
<path d="M25.1428 7.82938C24.9197 6.6418 23.8566 5.77695 22.6228 5.50695C20.7766 5.12937 17.3597 4.85938 13.6628 4.85938C9.96812 4.85938 6.49656 5.12937 4.64812 5.50695C3.41656 5.77695 2.35125 6.58695 2.12812 7.82938C1.90281 9.17938 1.67969 11.0694 1.67969 13.4994C1.67969 15.9294 1.90281 17.8194 2.18281 19.1694C2.40812 20.357 3.47125 21.2218 4.70281 21.4918C6.66281 21.8694 10.0228 22.1394 13.7197 22.1394C17.4166 22.1394 20.7766 21.8694 22.7366 21.4918C23.9681 21.2218 25.0312 20.4118 25.2566 19.1694C25.4797 17.8194 25.7597 15.8745 25.8166 13.4994C25.7028 11.0694 25.4228 9.17938 25.1428 7.82938ZM10.6397 17.2794V9.71938L17.4712 13.4994L10.6397 17.2794Z" fill="white"/>
</svg>
